<svg xmlns="http://www.w3.org/2000/svg" viewBox="0 0 880 200" width="1760" font-family="system-ui, sans-serif">
  <style>
    .box { fill: #fff; stroke: #999; stroke-width: 1; rx: 4; }
    .name { text-anchor: middle; dominant-baseline: central; font-weight: 500; font-size: 13px; }
    .itype { text-anchor: middle; font-size: 10px; fill: #1565c0; font-weight: 600; }
    .guar { text-anchor: middle; font-size: 9.5px; fill: #888; }
    .arr { stroke: #bbb; stroke-width: 1.2; fill: none; marker-end: url(#a); }
    .fb { stroke: #999; stroke-width: 1; fill: none; marker-end: url(#b); stroke-dasharray: 4,3; }
    .bk { stroke: #999; stroke-width: 1; fill: none; marker-end: url(#b); stroke-dasharray: 5,3; }
    .bk-label { text-anchor: middle; font-size: 10px; fill: #999; font-style: italic; }
    .dot { fill: #1565c0; }
    .env { stroke: #888; stroke-width: 1; fill: none; marker-end: url(#c); }
  </style>
  <defs>
    <marker id="a" markerWidth="6" markerHeight="5" refX="6" refY="2.5" orient="auto"><path d="M0,0 L6,2.5 L0,5" fill="#bbb"/></marker>
    <marker id="b" markerWidth="6" markerHeight="5" refX="6" refY="2.5" orient="auto"><path d="M0,0 L6,2.5 L0,5" fill="#999"/></marker>
    <marker id="c" markerWidth="6" markerHeight="5" refX="6" refY="2.5" orient="auto"><path d="M0,0 L6,2.5 L0,5" fill="#888"/></marker>
  </defs>

  <!-- Environment input -->
  <text x="75" y="14" text-anchor="middle" font-size="10" fill="#888">environment</text>
  <line class="env" x1="75" y1="20" x2="75" y2="52"/>

  <!-- Perceive -->
  <rect class="box" x="15" y="54" width="120" height="40"/>
  <text class="name" x="75" y="74">Perceive</text>
  <text class="guar" x="75" y="108">parseable</text>

  <circle class="dot" cx="157" cy="74" r="3"/>
  <text class="itype" x="157" y="48">encoded</text>
  <line class="arr" x1="135" y1="74" x2="172" y2="74"/>

  <!-- Cache -->
  <rect class="box" x="172" y="54" width="120" height="40"/>
  <text class="name" x="232" y="74">Cache</text>
  <text class="guar" x="232" y="108">retrievable</text>

  <circle class="dot" cx="314" cy="74" r="3"/>
  <text class="itype" x="314" y="48">indexed</text>
  <line class="arr" x1="292" y1="74" x2="329" y2="74"/>

  <!-- Filter -->
  <rect class="box" x="329" y="54" width="120" height="40"/>
  <text class="name" x="389" y="74">Filter</text>
  <text class="guar" x="389" y="108">strictly smaller</text>

  <circle class="dot" cx="471" cy="74" r="3"/>
  <text class="itype" x="471" y="48">selected</text>
  <line class="arr" x1="449" y1="74" x2="486" y2="74"/>

  <!-- Attend -->
  <rect class="box" x="486" y="54" width="120" height="40"/>
  <text class="name" x="546" y="74">Attend</text>
  <text class="guar" x="546" y="108">diverse, bounded</text>

  <circle class="dot" cx="628" cy="74" r="3"/>
  <text class="itype" x="628" y="48">ranked</text>
  <line class="arr" x1="606" y1="74" x2="643" y2="74"/>

  <!-- Remember -->
  <rect class="box" x="643" y="54" width="120" height="40"/>
  <text class="name" x="703" y="74">Remember</text>
  <text class="guar" x="703" y="108">persisted</text>

  <!-- Consolidate backward pass -->
  <path class="bk" d="M703,94 L703,138 L160,138"/>
  <text class="bk-label" x="432" y="132">Consolidate (backward pass): persisted → policy′</text>
  <text class="guar" x="432" y="152">reads from store async, writes to substrate</text>

  <!-- Feedback loop: Remember → Perceive -->
  <path class="fb" d="M703,138 L703,178 L75,178 L75,94"/>
  <text x="389" y="192" text-anchor="middle" font-size="10" fill="#999">trace</text>
</svg>
